<svg width="83" height="19" viewBox="0 0 83 19" fill="none" xmlns="http://www.w3.org/2000/svg">
<path d="M0.113636 18V0.545454H6.01136C7.375 0.545454 8.49432 0.778409 9.36932 1.24432C10.2443 1.70454 10.892 2.33807 11.3125 3.14489C11.733 3.9517 11.9432 4.86932 11.9432 5.89773C11.9432 6.92614 11.733 7.83807 11.3125 8.63352C10.892 9.42898 10.2472 10.054 9.37784 10.5085C8.50852 10.9574 7.39773 11.1818 6.04545 11.1818H1.27273V9.27273H5.97727C6.90909 9.27273 7.65909 9.13636 8.22727 8.86364C8.80114 8.59091 9.21591 8.20455 9.47159 7.70455C9.73295 7.19886 9.86364 6.59659 9.86364 5.89773C9.86364 5.19886 9.73295 4.58807 9.47159 4.06534C9.21023 3.54261 8.79261 3.1392 8.21875 2.85511C7.64489 2.56534 6.88636 2.42045 5.94318 2.42045H2.22727V18H0.113636ZM8.32955 10.1591L12.625 18H10.1705L5.94318 10.1591H8.32955ZM23.4425 12.6477V4.90909H25.4538V18H23.4425V15.7841H23.3061C22.9993 16.4489 22.522 17.0142 21.8743 17.4801C21.2266 17.9403 20.4084 18.1705 19.4197 18.1705C18.6016 18.1705 17.8743 17.9915 17.2379 17.6335C16.6016 17.2699 16.1016 16.7244 15.7379 15.9972C15.3743 15.2642 15.1925 14.3409 15.1925 13.2273V4.90909H17.2038V13.0909C17.2038 14.0455 17.4709 14.8068 18.005 15.375C18.5447 15.9432 19.2322 16.2273 20.0675 16.2273C20.5675 16.2273 21.076 16.0994 21.593 15.8438C22.1158 15.5881 22.5533 15.196 22.9055 14.6676C23.2635 14.1392 23.4425 13.4659 23.4425 12.6477ZM34.831 4.90909V6.61364H28.0469V4.90909H34.831ZM30.0241 1.77273H32.0355V14.25C32.0355 14.8182 32.1179 15.2443 32.2827 15.5284C32.4531 15.8068 32.669 15.9943 32.9304 16.0909C33.1974 16.1818 33.4787 16.2273 33.7741 16.2273C33.9957 16.2273 34.1776 16.2159 34.3196 16.1932C34.4616 16.1648 34.5753 16.142 34.6605 16.125L35.0696 17.9318C34.9332 17.983 34.7429 18.0341 34.4986 18.0852C34.2543 18.142 33.9446 18.1705 33.5696 18.1705C33.0014 18.1705 32.4446 18.0483 31.8991 17.804C31.3594 17.5597 30.9105 17.1875 30.5526 16.6875C30.2003 16.1875 30.0241 15.5568 30.0241 14.7955V1.77273ZM40.1491 10.125V18H38.1378V0.545454H40.1491V6.95455H40.3196C40.6264 6.27841 41.0866 5.74148 41.7003 5.34375C42.3196 4.94034 43.1435 4.73864 44.1719 4.73864C45.0639 4.73864 45.8452 4.91761 46.5156 5.27557C47.1861 5.62784 47.706 6.17045 48.0753 6.90341C48.4503 7.63068 48.6378 8.55682 48.6378 9.68182V18H46.6264V9.81818C46.6264 8.77841 46.3565 7.97443 45.8168 7.40625C45.2827 6.83239 44.5412 6.54545 43.5923 6.54545C42.9332 6.54545 42.3423 6.68466 41.8196 6.96307C41.3026 7.24148 40.8935 7.64773 40.5923 8.18182C40.2969 8.71591 40.1491 9.36364 40.1491 10.125ZM60.0241 10.125V18H58.0128V4.90909H59.956V6.95455H60.1264C60.4332 6.28977 60.8991 5.75568 61.5241 5.35227C62.1491 4.94318 62.956 4.73864 63.9446 4.73864C64.831 4.73864 65.6065 4.92045 66.2713 5.28409C66.9361 5.64205 67.4531 6.1875 67.8224 6.92045C68.1918 7.64773 68.3764 8.56818 68.3764 9.68182V18H66.3651V9.81818C66.3651 8.78977 66.098 7.98864 65.5639 7.41477C65.0298 6.83523 64.2969 6.54545 63.3651 6.54545C62.723 6.54545 62.1491 6.68466 61.6435 6.96307C61.1435 7.24148 60.7486 7.64773 60.4588 8.18182C60.169 8.71591 60.0241 9.36364 60.0241 10.125ZM77.5405 18.2727C76.2791 18.2727 75.1911 17.9943 74.2763 17.4375C73.3672 16.875 72.6655 16.0909 72.1712 15.0852C71.6825 14.0739 71.4382 12.8977 71.4382 11.5568C71.4382 10.2159 71.6825 9.03409 72.1712 8.01136C72.6655 6.98295 73.353 6.18182 74.2337 5.60795C75.12 5.02841 76.1541 4.73864 77.3359 4.73864C78.0178 4.73864 78.6911 4.85227 79.3558 5.07954C80.0206 5.30682 80.6257 5.67614 81.1712 6.1875C81.7166 6.69318 82.1513 7.36364 82.4751 8.19886C82.799 9.03409 82.9609 10.0625 82.9609 11.2841V12.1364H72.87V10.3977H80.9155C80.9155 9.65909 80.7678 9 80.4723 8.42045C80.1825 7.84091 79.7678 7.38352 79.228 7.0483C78.6939 6.71307 78.0632 6.54545 77.3359 6.54545C76.5348 6.54545 75.8416 6.74432 75.2564 7.14205C74.6768 7.53409 74.2308 8.04545 73.9183 8.67614C73.6058 9.30682 73.4496 9.98295 73.4496 10.7045V11.8636C73.4496 12.8523 73.62 13.6903 73.9609 14.3778C74.3075 15.0597 74.7876 15.5795 75.4013 15.9375C76.0149 16.2898 76.728 16.4659 77.5405 16.4659C78.0689 16.4659 78.5462 16.392 78.9723 16.2443C79.4041 16.0909 79.7763 15.8636 80.0888 15.5625C80.4013 15.2557 80.6428 14.875 80.8132 14.4205L82.7564 14.9659C82.5518 15.625 82.2081 16.2045 81.7251 16.7045C81.2422 17.1989 80.6456 17.5852 79.9354 17.8636C79.2251 18.1364 78.4268 18.2727 77.5405 18.2727Z" fill="black"/>
<path d="M52.3175 18V4.90909H54.3288V18H52.3175ZM53.3402 2.72727C52.9482 2.72727 52.6101 2.59375 52.326 2.3267C52.0476 2.05966 51.9084 1.73864 51.9084 1.36364C51.9084 0.988636 52.0476 0.667614 52.326 0.400568C52.6101 0.133523 52.9482 0 53.3402 0C53.7322 0 54.0675 0.133523 54.3459 0.400568C54.63 0.667614 54.772 0.988636 54.772 1.36364C54.772 1.73864 54.63 2.05966 54.3459 2.3267C54.0675 2.59375 53.7322 2.72727 53.3402 2.72727Z" fill="#BF40BF"/>
</svg>
